<?xml version="1.0" encoding="UTF-8"?>
<!-- Generator: visioncortex VTracer 0.6.2 -->
<svg version="1.1" xmlns="http://www.w3.org/2000/svg" width="1280" height="241">
<path d="M0 0 C4.2868927 0.05573559 8.57383426 0.10564903 12.86081123 0.15440273 C16.18590649 0.19326052 19.51093705 0.2363529 22.8359642 0.2806263 C24.41880197 0.30095932 26.00166122 0.31968683 27.58453751 0.33675957 C29.77779832 0.36079609 31.97089851 0.39082751 34.1640625 0.42236328 C35.40866241 0.43790756 36.65326233 0.45345184 37.93557739 0.46946716 C40.96435547 0.62768555 40.96435547 0.62768555 43.96435547 1.62768555 C43.97981667 3.18171333 43.97981667 3.18171333 43.99559021 4.76713562 C44.09377503 14.5788069 44.1965471 24.3904211 44.30369473 34.20199871 C44.35862263 39.24499715 44.41199074 44.2880016 44.46166992 49.33105469 C44.50976258 54.20701911 44.56211475 59.08292164 44.61729622 63.95881081 C44.63751849 65.8097051 44.65626177 67.66061622 44.67342949 69.51154137 C44.75904066 78.64194351 44.93370647 87.69738316 45.73054504 96.79930115 C46.08836244 101.12778707 46.21128044 105.45478948 46.31591797 109.7956543 C46.35064713 111.12600456 46.35064713 111.12600456 46.38607788 112.48323059 C46.43309773 114.32731897 46.47839287 116.17145212 46.52197266 118.015625 C46.59014771 120.84810086 46.66765664 123.68022927 46.74560547 126.51245117 C46.79043639 128.31517171 46.83472765 130.11790576 46.87841797 131.9206543 C46.91426498 133.18923531 46.91426498 133.18923531 46.95083618 134.48344421 C47.07896387 140.39846873 47.07896387 140.39846873 45.96435547 142.62768555 C28.98522118 142.68880669 12.00608465 142.72960972 -4.97314453 142.75268555 C-6.22400093 142.75439758 -7.47485733 142.75610962 -8.76361847 142.75787354 C-40.32557156 142.79605216 -71.86539529 142.73313864 -103.41064453 141.62768555 C-104.09374065 141.60376991 -104.77683678 141.57985428 -105.48063278 141.55521393 C-113.33364575 141.27758208 -121.18530369 140.97273719 -129.03564453 140.62768555 C-130.34599581 138.00698299 -130.15856316 136.08401123 -130.15589905 133.14816284 C-130.15727371 131.98426025 -130.15864838 130.82035767 -130.1600647 129.6211853 C-130.15646942 128.33797394 -130.15287415 127.05476257 -130.14916992 125.73266602 C-130.14888796 124.37278241 -130.14904596 123.01289865 -130.14961243 121.65301514 C-130.14990006 117.95489114 -130.14400888 114.2567994 -130.13703847 110.55868292 C-130.13079921 106.69627895 -130.13020068 102.83387429 -130.12901306 98.97146606 C-130.12590144 91.65458667 -130.11769032 84.33772217 -130.10766357 77.02084935 C-130.0964972 68.69206385 -130.09099066 60.36327765 -130.08596814 52.03448653 C-130.07550757 34.89887758 -130.05791139 17.76328314 -130.03564453 0.62768555 C-120.48918286 0.49560529 -110.94270102 0.36511733 -101.3961916 0.23653412 C-96.96097581 0.1767483 -92.52576814 0.11646115 -88.09057617 0.05493164 C-58.71516691 -0.3518976 -29.37615204 -0.38366882 0 0 Z " fill="#0AD0C6" transform="translate(200.03564453125,31.372314453125)"/>
<path d="M0 0 C0.495 0.99 0.495 0.99 1 2 C1.99 1.87625 1.99 1.87625 3 1.75 C7.21243694 2.10103641 10.34710677 3.96960773 14 6 C14 6.66 14 7.32 14 8 C14.556875 8.04125 15.11375 8.0825 15.6875 8.125 C19.294395 9.48977108 20.73038496 11.91080176 23 15 C23 15.66 23 16.32 23 17 C24.485 17.495 24.485 17.495 26 18 C28.95135317 23.3124357 30.39822796 28.98227957 31 35 C31.31650855 36.33742709 31.64641336 37.67189407 32 39 C29.25048889 39.24913692 26.5023728 39.47491836 23.75 39.6875 C22.58404297 39.79674805 22.58404297 39.79674805 21.39453125 39.90820312 C17.92157803 40.16051169 15.66516682 40.320189 12.484375 38.7890625 C10.67303508 36.60592123 10.53880477 35.49599545 10.5 32.6875 C10.1658574 28.11345905 9.05353671 25.54870483 6 22 C-2.80314182 15.39764364 -12.03314087 13.06433543 -23 14 C-23.495 14.495 -23.495 14.495 -24 15 C-25.051875 15.103125 -26.10375 15.20625 -27.1875 15.3125 C-34.15864013 16.56959084 -37.92185261 20.56247015 -42 26 C-43.84592468 29.04546496 -44.19930638 30.86018513 -43.6875 34.375 C-43.5740625 35.15746094 -43.460625 35.93992188 -43.34375 36.74609375 C-43.2303125 37.48988281 -43.116875 38.23367187 -43 39 C-42.896875 40.134375 -42.79375 41.26875 -42.6875 42.4375 C-42.26086662 45.1537432 -42.26086662 45.1537432 -39.9375 46.375 C-39.298125 46.58125 -38.65875 46.7875 -38 47 C-38 47.66 -38 48.32 -38 49 C-37.13375 49.185625 -37.13375 49.185625 -36.25 49.375 C-33.97664233 50.00648824 -32.0746471 50.88858191 -30 52 C-30 52.66 -30 53.32 -30 54 C-28.80375 54.103125 -27.6075 54.20625 -26.375 54.3125 C-22.37779362 54.80779084 -19.60025428 56.16457625 -16 58 C-11.47230817 59.41992703 -6.90605004 60.68366539 -2.22265625 61.4609375 C-1.12244141 61.72777344 -1.12244141 61.72777344 0 62 C0.33 62.66 0.66 63.32 1 64 C2.2375 64.37125 2.2375 64.37125 3.5 64.75 C7.48392193 66.17282926 10.43406566 68.20795238 13.8515625 70.66015625 C15.90867948 72.09661292 15.90867948 72.09661292 18.18359375 72.54296875 C20 73 20 73 21.4375 75.25 C21.953125 76.1575 22.46875 77.065 23 78 C23.845625 78.7425 24.69125 79.485 25.5625 80.25 C28.41348045 83.46649076 28.8887678 85.66834088 29.54296875 89.81640625 C29.8991227 92.02759267 29.8991227 92.02759267 31.02734375 93.921875 C33.34422011 98.87198835 32.75417533 105.43813639 31.2421875 110.57421875 C27.44118791 119.38834771 21.75811924 127.62094038 13 132 C11.01751285 132.71706982 9.01584651 133.38290413 7 134 C6.071875 134.350625 5.14375 134.70125 4.1875 135.0625 C0.7481671 136.0740685 -2.48579657 136.45714971 -6.046875 136.75390625 C-8.07629767 136.89986068 -8.07629767 136.89986068 -10 138 C-11.8521563 138.09584979 -13.70787153 138.12983606 -15.5625 138.125 C-16.55378906 138.12757813 -17.54507813 138.13015625 -18.56640625 138.1328125 C-21 138 -21 138 -22 137 C-23.55836106 136.8151097 -25.12240167 136.67713351 -26.6875 136.5625 C-30.75860482 136.18191513 -34.1844132 135.54247126 -38 134 C-38.68707031 133.73316406 -39.37414062 133.46632812 -40.08203125 133.19140625 C-51.82931253 128.36841683 -60.64700138 120.13914887 -66.05859375 108.6015625 C-67.53312686 104.52671168 -68.32556206 100.34082751 -68 96 C-66 94 -66 94 -62.8828125 93.734375 C-61.02269531 93.74210937 -61.02269531 93.74210937 -59.125 93.75 C-57.89007813 93.74484375 -56.65515625 93.7396875 -55.3828125 93.734375 C-50.37393632 94.12768167 -50.37393632 94.12768167 -48 96 C-47.49609375 97.98828125 -47.49609375 97.98828125 -47.4375 100.3125 C-47.17893996 104.33957263 -46.2872223 106.61888877 -44 110 C-44 110.99 -44 111.98 -44 113 C-43.01 113 -42.02 113 -41 113 C-41 113.99 -41 114.98 -41 116 C-40.154375 116.103125 -39.30875 116.20625 -38.4375 116.3125 C-35 117 -35 117 -32.00390625 118.51953125 C-26.99008308 120.71866949 -21.8873019 120.43708158 -16.5 120.375 C-15.49324219 120.38660156 -14.48648438 120.39820313 -13.44921875 120.41015625 C-4.94451841 120.37671706 1.27928603 118.49876598 8 113 C12.09389933 106.17683445 11.86836156 98.96941929 10 91.375 C9.67 90.26125 9.34 89.1475 9 88 C8.34 88 7.68 88 7 88 C6.67 87.34 6.34 86.68 6 86 C3.99003673 84.9425555 3.99003673 84.9425555 1.625 84 C-1.19550635 82.82402341 -3.43378609 81.71080928 -6 80 C-7.55421127 79.4815251 -9.12778447 79.01957496 -10.7109375 78.59765625 C-11.62617188 78.34693359 -12.54140625 78.09621094 -13.484375 77.83789062 C-15.4031935 77.32318053 -17.32246192 76.81014468 -19.2421875 76.29882812 C-23.96046872 75.00328883 -27.88418945 73.72358628 -32 71 C-33.46293159 70.47334463 -34.94298553 69.991407 -36.4375 69.5625 C-40.49881496 68.26234307 -43.55424315 66.56598914 -47 64 C-47.63808594 63.56816406 -48.27617187 63.13632813 -48.93359375 62.69140625 C-55.92608384 57.813847 -60.71256895 52.31977132 -63 44 C-64.07321153 36.05477271 -64.65056474 28.63986307 -62 21 C-61.34 21 -60.68 21 -60 21 C-59.79375 20.34 -59.5875 19.68 -59.375 19 C-55.68155673 10.94157832 -50.25578921 5.45408613 -42 2 C-39.19140625 1.84375 -39.19140625 1.84375 -37 2 C-37 1.34 -37 0.68 -37 0 C-25.00219115 -3.81748463 -11.75265344 -5.36085946 0 0 Z M-39 16 C-38.67 16.99 -38.34 17.98 -38 19 C-37.34 18.67 -36.68 18.34 -36 18 C-36 17.34 -36 16.68 -36 16 C-36.99 16 -37.98 16 -39 16 Z M26 113 C26.33 113.99 26.66 114.98 27 116 C27.33 115.01 27.66 114.02 28 113 C27.34 113 26.68 113 26 113 Z M22 119 C22.33 119.66 22.66 120.32 23 121 C23.33 120.34 23.66 119.68 24 119 C23.34 119 22.68 119 22 119 Z M18 123 C18.33 123.66 18.66 124.32 19 125 C19.33 124.34 19.66 123.68 20 123 C19.34 123 18.68 123 18 123 Z M16 125 C17 127 17 127 17 127 Z M11 128 C11.33 128.99 11.66 129.98 12 131 C12 130.34 12 129.68 12 129 C12.66 128.67 13.32 128.34 14 128 C13.01 128 12.02 128 11 128 Z " fill="#F7FAFA" transform="translate(352,51)"/>
<path d="M0 0 C1.37376679 0.00398964 2.74753489 0.01873698 4.12109375 0.04296875 C4.81912109 0.04361328 5.51714844 0.04425781 6.23632812 0.04492188 C11.41828217 0.09015717 11.41828217 0.09015717 12.55859375 1.23046875 C12.68132224 2.82560768 12.73640418 4.42601807 12.76391602 6.02563477 C12.78386124 7.04661758 12.80380646 8.0676004 12.82435608 9.11952209 C12.84106857 10.22992355 12.85778107 11.34032501 12.875 12.484375 C12.8957811 13.61495834 12.91656219 14.74554169 12.93797302 15.91038513 C13.00359172 19.5378486 13.06241052 23.16538708 13.12109375 26.79296875 C13.16426726 29.24545061 13.20788115 31.69792475 13.25195312 34.15039062 C13.35928559 40.17700302 13.46102865 46.20369076 13.55859375 52.23046875 C14.03811996 51.81347717 14.51764618 51.3964856 15.01170349 50.96685791 C15.64133499 50.42253113 16.27096649 49.87820435 16.91967773 49.31738281 C17.54357895 48.77664124 18.16748016 48.23589966 18.81028748 47.67877197 C20.6560641 46.14972396 22.4496412 44.99473533 24.62109375 43.98046875 C25.53568359 43.53960937 25.53568359 43.53960937 26.46875 43.08984375 C31.85668104 40.87424594 36.60149077 39.84236135 42.43359375 39.85546875 C43.14177246 39.85635498 43.84995117 39.85724121 44.57958984 39.8581543 C50.24653232 39.98674076 53.92875631 41.12881726 58.55859375 44.23046875 C59.61046875 44.70484375 60.66234375 45.17921875 61.74609375 45.66796875 C64.99862837 47.47493243 67.18473596 49.36787553 69.55859375 52.23046875 C69.55859375 53.55046875 69.55859375 54.87046875 69.55859375 56.23046875 C70.21859375 56.23046875 70.87859375 56.23046875 71.55859375 56.23046875 C73.00948135 59.32569563 73.74516376 62.10922557 74.12109375 65.48046875 C74.14096786 69.01964389 74.14096786 69.01964389 75.55859375 70.23046875 C75.65826961 72.49496254 75.68659206 74.76261086 75.68798828 77.02929688 C75.69061676 78.09512245 75.69061676 78.09512245 75.69329834 79.18247986 C75.69771652 81.54225066 75.694779 83.90194712 75.69140625 86.26171875 C75.6920793 87.89457209 75.69304933 89.52742533 75.69430542 91.16027832 C75.69578235 94.58684236 75.69362801 98.01338038 75.68896484 101.43994141 C75.68326755 105.84201376 75.68654659 110.24402516 75.69253731 114.64609528 C75.69614306 118.0191494 75.69500427 121.39218897 75.69240952 124.76524353 C75.69174029 126.38882962 75.69256853 128.01241702 75.69488907 129.63600159 C75.69741584 131.90125045 75.69357469 134.16639925 75.68798828 136.43164062 C75.68719269 137.72324097 75.68639709 139.01484131 75.68557739 140.34558105 C75.55859375 143.23046875 75.55859375 143.23046875 74.55859375 144.23046875 C71.69591808 144.30372043 68.85787475 144.3228508 65.99609375 144.29296875 C65.18978516 144.28845703 64.38347656 144.28394531 63.55273438 144.27929688 C61.55465619 144.26747393 59.55661592 144.24953789 57.55859375 144.23046875 C56.12856541 141.37041207 56.41801421 138.91754825 56.40087891 135.72045898 C56.39579819 135.05187363 56.39071747 134.38328827 56.38548279 133.69444275 C56.37477135 132.23976901 56.36615421 130.78507872 56.35936356 129.33038139 C56.34756663 127.02152325 56.32810793 124.7128515 56.3062439 122.40406799 C56.24468276 115.83837174 56.19075169 109.27269098 56.15722656 102.70678711 C56.13616925 98.69075841 56.10076995 94.67506391 56.05646896 90.65922737 C56.04238624 89.13439966 56.03360413 87.60951274 56.03041458 86.08462334 C56.46093883 72.9862941 56.46093883 72.9862941 51.0597229 61.57298279 C45.88966323 56.94921162 39.32228636 57.68601755 32.77734375 57.859375 C25.77187903 58.29335551 21.03891467 61.23012091 16.37060547 66.37109375 C11.79927897 72.68482519 12.70739215 80.52991746 12.75390625 87.98046875 C12.74264376 89.60573284 12.72875774 91.23098066 12.71237183 92.85620117 C12.67645933 97.11093938 12.67594418 101.36495719 12.68304443 105.61981201 C12.6839599 109.97062928 12.65106255 114.32118025 12.62109375 118.671875 C12.56734926 127.19156718 12.55416423 135.71060801 12.55859375 144.23046875 C6.94859375 144.23046875 1.33859375 144.23046875 -4.44140625 144.23046875 C-4.61812213 125.7506023 -4.78422845 107.27067765 -4.93618202 88.79059029 C-5.00700151 80.21043239 -5.08160396 71.63033822 -5.16503906 63.05029297 C-5.23773118 55.57402316 -5.30339997 48.09773074 -5.36055028 40.62132537 C-5.39107298 36.66072992 -5.42516974 32.70023645 -5.46767044 28.73974991 C-5.50752959 25.01509533 -5.5380263 21.29048359 -5.56122017 17.56568909 C-5.57142304 16.19582454 -5.58510041 14.82598098 -5.60244179 13.4561882 C-5.62553817 11.59149948 -5.63513028 9.72665782 -5.64395142 7.86184692 C-5.65316935 6.81653368 -5.66238728 5.77122044 -5.67188454 4.69423103 C-5.28819089 0.59263016 -3.97486001 0.2661938 0 0 Z M16.55859375 61.23046875 C17.55859375 63.23046875 17.55859375 63.23046875 17.55859375 63.23046875 Z M12.55859375 66.23046875 C12.88859375 67.22046875 13.21859375 68.21046875 13.55859375 69.23046875 C13.88859375 68.24046875 14.21859375 67.25046875 14.55859375 66.23046875 C13.89859375 66.23046875 13.23859375 66.23046875 12.55859375 66.23046875 Z " fill="#F9FBFB" transform="translate(787.44140625,42.76953125)"/>
<path d="M0 0 C0.77279297 -0.01611328 1.54558594 -0.03222656 2.34179688 -0.04882812 C7.70602395 -0.05336255 11.24089411 0.99317183 16.0625 3.3125 C17.42750431 3.64784708 18.80214288 3.94984459 20.1875 4.1875 C24.33098007 5.15351366 26.27177534 7.06922539 29.0625 10.3125 C30.3309375 11.42625 30.3309375 11.42625 31.625 12.5625 C38.05698132 19.81909431 39.15380918 28.38507567 39.23608398 37.8269043 C39.24957382 39.07477219 39.26306366 40.32264008 39.27696228 41.60832214 C39.28202223 42.26481436 39.28708218 42.92130657 39.29229546 43.59769249 C39.30886251 45.67034186 39.33209953 47.7428212 39.35719299 49.81538391 C39.42757587 55.70308838 39.4882276 61.59085632 39.53930664 67.47875977 C39.57111638 71.09199692 39.61237872 74.70502593 39.65950203 78.31809425 C39.67548839 79.69075603 39.68782548 81.06346544 39.69640923 82.43619347 C39.70857972 84.35296555 39.73376536 86.26964162 39.75952148 88.1862793 C39.77498268 89.82006783 39.77498268 89.82006783 39.79075623 91.48686218 C40.06228883 94.31030422 40.80072134 95.8336087 42.0625 98.3125 C41.5675 99.7975 41.5675 99.7975 41.0625 101.3125 C41.7225 101.3125 42.3825 101.3125 43.0625 101.3125 C43.0625 101.9725 43.0625 102.6325 43.0625 103.3125 C40.765963 104.4607685 39.47936833 104.42811175 36.9296875 104.41015625 C36.12402344 104.40693359 35.31835938 104.40371094 34.48828125 104.40039062 C33.22564453 104.38782227 33.22564453 104.38782227 31.9375 104.375 C31.08800781 104.37048828 30.23851562 104.36597656 29.36328125 104.36132812 C27.26299091 104.34952874 25.1627367 104.33159306 23.0625 104.3125 C22.5675 100.3525 22.5675 100.3525 22.0625 96.3125 C18.04790045 96.9301307 15.37415832 99.06057234 12.0625 101.3125 C4.24602466 105.93132634 -4.03846137 106.59956576 -12.9375 106.3125 C-12.9375 105.6525 -12.9375 104.9925 -12.9375 104.3125 C-13.948125 104.374375 -14.95875 104.43625 -16 104.5 C-23.29618117 104.1525628 -28.97838212 100.51024905 -34.5625 96 C-40.23231361 89.04159239 -43.32731909 81.12551327 -43.140625 72.1953125 C-42.9375 70.3125 -42.9375 70.3125 -41.9375 68.3125 C-41.2775 68.3125 -40.6175 68.3125 -39.9375 68.3125 C-40.164375 67.755625 -40.39125 67.19875 -40.625 66.625 C-41.07279819 63.3112934 -39.81550773 62.03237326 -37.9375 59.3125 C-37.31875 58.301875 -36.7 57.29125 -36.0625 56.25 C-31.5596757 50.02550759 -24.49931042 45.79812091 -16.9375 44.3125 C-14.60449067 44.27361651 -12.27040199 44.2676365 -9.9375 44.3125 C-9.9375 43.6525 -9.9375 42.9925 -9.9375 42.3125 C-6.21861134 41.4492399 -2.79453512 41.19528444 1.01953125 41.21484375 C2.13134766 41.21806641 3.24316406 41.22128906 4.38867188 41.22460938 C5.53916016 41.23298828 6.68964844 41.24136719 7.875 41.25 C9.04482422 41.25451172 10.21464844 41.25902344 11.41992188 41.26367188 C14.30083358 41.2754307 17.18164044 41.29186574 20.0625 41.3125 C20.08939216 39.83343108 20.10884621 38.35422517 20.125 36.875 C20.13660156 36.05128906 20.14820313 35.22757813 20.16015625 34.37890625 C20.29517348 32.32086062 20.29517348 32.32086062 19.0625 31.3125 C18.9078125 29.6728125 18.9078125 29.6728125 18.75 28 C17.9577512 23.75066552 17.54620573 22.77658454 14.0625 20.3125 C6.85898103 16.56822485 0.29802337 14.74794856 -7.6171875 17.11328125 C-13.40117203 19.26903864 -13.40117203 19.26903864 -17.9375 23.3125 C-18.95715427 25.63731174 -19.95809602 27.97044699 -20.9375 30.3125 C-22.9375 32.3125 -22.9375 32.3125 -26.34375 32.54296875 C-27.70840267 32.53897854 -29.0730566 32.52422843 -30.4375 32.5 C-31.12714844 32.49935547 -31.81679688 32.49871094 -32.52734375 32.49804688 C-37.65638951 32.45305525 -37.65638951 32.45305525 -39.9375 31.3125 C-39.4349996 21.93249254 -35.33659934 16.15625605 -28.625 9.77734375 C-20.65611873 2.85991209 -10.32761488 -0.04285317 0 0 Z M-13.9375 15.3125 C-12.9375 17.3125 -12.9375 17.3125 -12.9375 17.3125 Z M-19.9375 19.3125 C-19.6075 20.3025 -19.2775 21.2925 -18.9375 22.3125 C-18.9375 21.6525 -18.9375 20.9925 -18.9375 20.3125 C-18.2775 19.9825 -17.6175 19.6525 -16.9375 19.3125 C-17.9275 19.3125 -18.9175 19.3125 -19.9375 19.3125 Z M-22.9375 26.3125 C-22.6075 26.9725 -22.2775 27.6325 -21.9375 28.3125 C-21.6075 27.6525 -21.2775 26.9925 -20.9375 26.3125 C-21.5975 26.3125 -22.2575 26.3125 -22.9375 26.3125 Z M-16.4375 60.5 C-17.5925 61.098125 -18.7475 61.69625 -19.9375 62.3125 C-19.9375 63.3025 -19.9375 64.2925 -19.9375 65.3125 C-20.9275 65.6425 -21.9175 65.9725 -22.9375 66.3125 C-22.99191656 68.20801022 -23.03048035 70.1039792 -23.0625 72 C-23.08570313 73.05574219 -23.10890625 74.11148438 -23.1328125 75.19921875 C-22.88295144 79.18200411 -22.258104 82.05235739 -19.31640625 84.859375 C-18.71699219 85.25640625 -18.11757813 85.6534375 -17.5 86.0625 C-16.90316406 86.46984375 -16.30632813 86.8771875 -15.69140625 87.296875 C-9.95352553 90.61947853 -2.53356864 90.08383067 3.7578125 88.734375 C10.49423239 86.41147159 16.71747041 82.75010413 20.0625 76.3125 C21.16025099 69.82285443 20.98650822 62.82455795 20.0625 56.3125 C17.61769579 53.86769579 11.27944911 55.07856589 8 55.0625 C6.97455078 55.041875 5.94910156 55.02125 4.89257812 55 C-3.3467276 54.95782825 -9.11503093 56.70800709 -16.4375 60.5 Z M-24.9375 64.3125 C-23.9375 67.3125 -23.9375 67.3125 -23.9375 67.3125 Z M14.0625 95.3125 C14.3925 95.9725 14.7225 96.6325 15.0625 97.3125 C15.7225 96.6525 16.3825 95.9925 17.0625 95.3125 C16.0725 95.3125 15.0825 95.3125 14.0625 95.3125 Z M-24.9375 99.3125 C-23.9375 101.3125 -23.9375 101.3125 -23.9375 101.3125 Z " fill="#F7FBFA" transform="translate(714.9375,82.6875)"/>
<path d="M0 0 C8.78287336 0.06247979 14.78165759 2.30108063 22.5 6.25 C23.46679688 6.43175781 23.46679688 6.43175781 24.453125 6.6171875 C29.74292208 8.25258278 33.43291104 14.83502931 36.1875 19.375 C42.66508451 32.00843469 43.33281202 44.33794349 42.5 58.25 C41.5 59.25 41.5 59.25 38.83616638 59.37025452 C37.0541256 59.3669236 37.0541256 59.3669236 35.23608398 59.36352539 C34.2556311 59.36374443 34.2556311 59.36374443 33.25537109 59.3639679 C31.08557872 59.36326883 28.91587121 59.35547678 26.74609375 59.34765625 C25.24536689 59.34579205 23.74463943 59.34436816 22.24391174 59.34336853 C18.28681774 59.33954352 14.32976022 59.3297134 10.37268066 59.31866455 C6.33765151 59.30845006 2.30261647 59.30387083 -1.73242188 59.29882812 C-9.65496469 59.28809111 -17.57747781 59.2710149 -25.5 59.25 C-25.19726778 61.02125077 -24.8891976 62.7915898 -24.57885742 64.56152344 C-24.32237679 66.04045074 -24.32237679 66.04045074 -24.06071472 67.54925537 C-22.43991751 75.35600488 -16.66795408 82.36641409 -10.5 87.25 C-6.00649228 88.74783591 -1.58380449 88.5980142 3.125 88.6875 C4.08535156 88.73326172 5.04570313 88.77902344 6.03515625 88.82617188 C14.3173853 88.95540611 19.11398096 86.22033158 25.15893555 80.74829102 C26.31149125 79.62059475 27.4135871 78.44154963 28.5 77.25 C32.0786304 78.90167557 35.24820188 81.03286492 38.5 83.25 C37.51 85.23 37.51 85.23 36.5 87.25 C37.82 86.59 39.14 85.93 40.5 85.25 C37.83350397 91.02740807 35.17222683 95.19572401 29.5 98.25 C29.03980469 98.73855469 28.57960938 99.22710937 28.10546875 99.73046875 C23.59800646 103.99665568 16.28423291 104.59931608 10.34765625 105.0390625 C8.40694865 105.15366143 8.40694865 105.15366143 6.5 106.25 C4.95976004 106.31950541 3.41665012 106.33452357 1.875 106.3125 C1.05773437 106.30347656 0.24046875 106.29445313 -0.6015625 106.28515625 C-1.22804688 106.27355469 -1.85453125 106.26195312 -2.5 106.25 C-2.5 105.59 -2.5 104.93 -2.5 104.25 C-3.77875 104.3325 -5.0575 104.415 -6.375 104.5 C-15.83587812 104.45551311 -23.85729591 99.74481457 -30.5 93.25 C-41.19907088 80.14104132 -45.6048828 64.8169807 -44.19360352 48.02978516 C-43.13088575 37.71424064 -40.75983811 26.78614288 -34.5 18.25 C-33.84 18.25 -33.18 18.25 -32.5 18.25 C-31.84 16.6 -31.18 14.95 -30.5 13.25 C-29.51 13.25 -28.52 13.25 -27.5 13.25 C-27.231875 12.610625 -26.96375 11.97125 -26.6875 11.3125 C-25.5 9.25 -25.5 9.25 -22.5 8.25 C-22.5 7.59 -22.5 6.93 -22.5 6.25 C-21.18 6.25 -19.86 6.25 -18.5 6.25 C-18.5 5.59 -18.5 4.93 -18.5 4.25 C-14.95917084 2.1255025 -11.55008109 1.78491637 -7.5 1.25 C-5.61520858 -0.63479142 -2.51579362 0.03225376 0 0 Z M-11.5 15.25 C-11.17 15.91 -10.84 16.57 -10.5 17.25 C-9.84 16.59 -9.18 15.93 -8.5 15.25 C-9.49 15.25 -10.48 15.25 -11.5 15.25 Z M-18.80078125 24.8984375 C-21.72050934 28.9390727 -23.57053619 33.35384812 -24.5 38.25 C-24.17 39.9 -23.84 41.55 -23.5 43.25 C-7.99 43.25 7.52 43.25 23.5 43.25 C23.89995453 34.1457844 23.89995453 34.1457844 20.5 27.25 C19.901875 26.21875 19.30375 25.1875 18.6875 24.125 C14.96274117 19.22960268 10.43046781 16.70235946 4.5 15.25 C-4.75985729 14.18155493 -12.62122188 18.2049594 -18.80078125 24.8984375 Z M-20.5 22.25 C-20.17 23.24 -19.84 24.23 -19.5 25.25 C-19.5 24.59 -19.5 23.93 -19.5 23.25 C-18.84 22.92 -18.18 22.59 -17.5 22.25 C-18.49 22.25 -19.48 22.25 -20.5 22.25 Z " fill="#F8FAFA" transform="translate(548.5,82.75)"/>
<path d="M0 0 C8.17194961 5.7141027 14.21619559 12.86342187 16.7265625 22.61328125 C17.44614801 26.84473437 17.91010272 31.09741502 18.33203125 35.3671875 C18.36962953 38.46189064 18.36962953 38.46189064 19.7265625 39.61328125 C19.82530066 41.61127697 19.85628049 43.61285283 19.8515625 45.61328125 C19.85542969 47.25296875 19.85542969 47.25296875 19.859375 48.92578125 C19.7265625 51.61328125 19.7265625 51.61328125 18.7265625 52.61328125 C16.64037228 52.70745898 14.55095773 52.73071003 12.46264648 52.72680664 C11.4821936 52.72702568 11.4821936 52.72702568 10.48193359 52.72724915 C8.31214122 52.72655008 6.14243371 52.71875803 3.97265625 52.7109375 C2.47192939 52.7090733 0.97120193 52.70764941 -0.52952576 52.70664978 C-4.48661976 52.70282477 -8.44367728 52.69299465 -12.40075684 52.6819458 C-16.43578599 52.67173131 -20.47082103 52.66715208 -24.50585938 52.66210938 C-32.42840219 52.65137236 -40.35091531 52.63429615 -48.2734375 52.61328125 C-48.12559814 53.87640137 -47.97775879 55.13952148 -47.82543945 56.44091797 C-47.7007 57.50667557 -47.7007 57.50667557 -47.57344055 58.59396362 C-46.62386531 64.98554532 -43.37118828 71.69598031 -39.2734375 76.61328125 C-37.0047225 78.19883263 -34.76518753 79.36740624 -32.2734375 80.61328125 C-31.2834375 81.10828125 -31.2834375 81.10828125 -30.2734375 81.61328125 C-27.02913583 81.85277995 -23.77560407 81.79847802 -20.5234375 81.80078125 C-19.62882812 81.81302734 -18.73421875 81.82527344 -17.8125 81.83789062 C-9.5558376 81.93510225 -9.5558376 81.93510225 -2.5859375 77.98828125 C-2.1528125 77.53453125 -1.7196875 77.08078125 -1.2734375 76.61328125 C-0.2834375 76.61328125 0.7065625 76.61328125 1.7265625 76.61328125 C2.0978125 75.65421875 2.0978125 75.65421875 2.4765625 74.67578125 C3.7265625 72.61328125 3.7265625 72.61328125 5.6015625 71.80078125 C7.89686533 71.59825453 9.54390174 71.91171172 11.7265625 72.61328125 C11.7265625 73.60328125 11.7265625 74.59328125 11.7265625 75.61328125 C12.7165625 75.61328125 13.7065625 75.61328125 14.7265625 75.61328125 C14.7265625 76.27328125 14.7265625 76.93328125 14.7265625 77.61328125 C15.7165625 77.61328125 16.7065625 77.61328125 17.7265625 77.61328125 C17.26768019 81.92677501 14.49108952 84.29376278 11.5390625 87.17578125 C11.06919922 87.65724609 10.59933594 88.13871094 10.11523438 88.63476562 C3.24484174 95.4489204 -4.71245565 97.67011745 -14.1015625 98.3671875 C-16.3179101 98.49232276 -16.3179101 98.49232276 -18.2734375 99.61328125 C-23.81189904 99.84405048 -23.81189904 99.84405048 -26.2734375 98.61328125 C-27.97707572 98.38706044 -29.68672451 98.20439652 -31.3984375 98.05078125 C-32.76355469 97.92509766 -32.76355469 97.92509766 -34.15625 97.796875 C-34.85492188 97.73628906 -35.55359375 97.67570312 -36.2734375 97.61328125 C-36.2734375 96.95328125 -36.2734375 96.29328125 -36.2734375 95.61328125 C-36.9746875 95.51015625 -37.6759375 95.40703125 -38.3984375 95.30078125 C-47.72073751 93.0715356 -55.97498295 85.46634782 -61.2734375 77.61328125 C-66.04382005 68.04113205 -67.59532187 58.94428218 -67.4609375 48.36328125 C-67.46029297 47.38359375 -67.45964844 46.40390625 -67.45898438 45.39453125 C-67.4336917 41.28025544 -67.38464267 37.59094436 -66.2734375 33.61328125 C-66.1290625 32.78054687 -65.9846875 31.9478125 -65.8359375 31.08984375 C-63.75392339 20.53518888 -57.38654681 7.90092872 -48.2734375 1.61328125 C-32.16819137 -7.67994201 -16.370296 -9.985318 0 0 Z M-39.8984375 14.61328125 C-41.65112338 16.75813237 -41.65112338 16.75813237 -41.2734375 20.61328125 C-42.2634375 20.94328125 -43.2534375 21.27328125 -44.2734375 21.61328125 C-45.89503758 24.85648141 -46.63611851 28.062504 -47.2734375 31.61328125 C-47.4796875 32.35578125 -47.6859375 33.09828125 -47.8984375 33.86328125 C-48.0221875 34.44078125 -48.1459375 35.01828125 -48.2734375 35.61328125 C-47.27932295 36.82808409 -47.27932295 36.82808409 -45.33091736 36.73353577 C-44.48042313 36.73131516 -43.62992889 36.72909454 -42.75366211 36.72680664 C-41.79274155 36.72673111 -40.83182098 36.72665558 -39.84178162 36.72657776 C-38.7970015 36.72141647 -37.75222137 36.71625519 -36.67578125 36.7109375 C-35.07978844 36.70881508 -35.07978844 36.70881508 -33.45155334 36.70664978 C-30.03798667 36.70103189 -26.6244845 36.68847636 -23.2109375 36.67578125 C-20.90299574 36.67076856 -18.59505295 36.66620525 -16.28710938 36.66210938 C-10.61586324 36.65105665 -4.94465497 36.63430112 0.7265625 36.61328125 C0.41752079 34.34197469 0.10421343 32.0712482 -0.2109375 29.80078125 C-0.38496094 28.53621094 -0.55898438 27.27164063 -0.73828125 25.96875 C-1.51547172 21.09570901 -2.58120842 18.85796741 -6.2734375 15.61328125 C-6.9334375 15.61328125 -7.5934375 15.61328125 -8.2734375 15.61328125 C-8.2734375 14.95328125 -8.2734375 14.29328125 -8.2734375 13.61328125 C-8.9334375 13.61328125 -9.5934375 13.61328125 -10.2734375 13.61328125 C-10.2734375 12.95328125 -10.2734375 12.29328125 -10.2734375 11.61328125 C-21.13187168 7.39055685 -30.30026076 7.30038468 -39.8984375 14.61328125 Z M-41.2734375 12.61328125 C-40.9434375 13.27328125 -40.6134375 13.93328125 -40.2734375 14.61328125 C-39.6134375 13.95328125 -38.9534375 13.29328125 -38.2734375 12.61328125 C-39.2634375 12.61328125 -40.2534375 12.61328125 -41.2734375 12.61328125 Z M-45.2734375 17.61328125 C-45.2734375 18.60328125 -45.2734375 19.59328125 -45.2734375 20.61328125 C-44.2834375 20.28328125 -43.2934375 19.95328125 -42.2734375 19.61328125 C-42.6034375 18.95328125 -42.9334375 18.29328125 -43.2734375 17.61328125 C-43.9334375 17.61328125 -44.5934375 17.61328125 -45.2734375 17.61328125 Z M-0.2734375 29.61328125 C0.7265625 32.61328125 0.7265625 32.61328125 0.7265625 32.61328125 Z M11.7265625 80.61328125 C12.0565625 81.27328125 12.3865625 81.93328125 12.7265625 82.61328125 C13.0565625 81.95328125 13.3865625 81.29328125 13.7265625 80.61328125 C13.0665625 80.61328125 12.4065625 80.61328125 11.7265625 80.61328125 Z M9.7265625 83.61328125 C10.7265625 85.61328125 10.7265625 85.61328125 10.7265625 85.61328125 Z M4.7265625 87.61328125 C5.0565625 88.60328125 5.3865625 89.59328125 5.7265625 90.61328125 C5.7265625 89.95328125 5.7265625 89.29328125 5.7265625 88.61328125 C6.3865625 88.28328125 7.0465625 87.95328125 7.7265625 87.61328125 C6.7365625 87.61328125 5.7465625 87.61328125 4.7265625 87.61328125 Z " fill="#F7FAFA" transform="translate(468.2734375,89.38671875)"/>
<path d="M0 0 C8.71682532 0.52362555 16.43334954 1.45290489 24 6 C25.216875 6.474375 26.43375 6.94875 27.6875 7.4375 C31.30912768 9.14581494 33.33759063 11.04176737 36 14 C36.53625 14.495 37.0725 14.99 37.625 15.5 C39.4543925 17.49570091 40.66220883 19.64548753 42 22 C42.639375 22.969375 43.27875 23.93875 43.9375 24.9375 C49.28882539 34.68972233 50.37412246 44.38571221 50.4375 55.3125 C50.44749023 56.32626709 50.45748047 57.34003418 50.46777344 58.38452148 C50.3943156 64.78637239 49.41208442 70.07464485 47 76 C46.67 76.86625 46.34 77.7325 46 78.625 C45.67 79.40875 45.34 80.1925 45 81 C44.5875 82.093125 44.175 83.18625 43.75 84.3125 C39.46149919 94.05141071 31.7809388 100.77650945 22 104.875 C18.07766664 106.19046559 14.11617474 106.52537506 10.00390625 106.7890625 C8.00306021 106.78720705 8.00306021 106.78720705 7 108 C5.50261876 108.0979057 4.00057108 108.12974864 2.5 108.125 C1.6853125 108.12757813 0.870625 108.13015625 0.03125 108.1328125 C-2 108 -2 108 -3 107 C-4.51413158 106.67533241 -6.03688569 106.39052676 -7.5625 106.125 C-16.18627157 104.43214015 -22.24639839 101.6765186 -29 96 C-29.886875 95.2575 -30.77375 94.515 -31.6875 93.75 C-41.78151459 81.74630698 -45.231194 64.30834584 -45 49 C-44.70734717 46.66121615 -44.37979153 44.32622311 -44 42 C-43.87625 40.845 -43.7525 39.69 -43.625 38.5 C-42.93335039 34.62676216 -41.65450879 31.5635574 -40 28 C-39.62875 26.906875 -39.2575 25.81375 -38.875 24.6875 C-36.5876898 19.2643613 -32.02749087 15.17341445 -28 11 C-27.4534375 10.43152344 -26.906875 9.86304687 -26.34375 9.27734375 C-23.71804645 6.7813988 -21.60315848 6 -18 6 C-18 5.34 -18 4.68 -18 4 C-13.1135933 2.01902431 -8.49745844 1.59025029 -3.29296875 1.24609375 C-1.03742447 1.24662846 -1.03742447 1.24662846 0 0 Z M-20.44140625 24.90234375 C-22.12871138 27.1732281 -23.06957343 29.33833195 -24 32 C-24.66 31.67 -25.32 31.34 -26 31 C-27.595102 35.18714276 -28.20337225 38.52581051 -28 43 C-28 44.95368742 -28.06948522 46.90698322 -28.140625 48.859375 C-28.51379557 62.639624 -27.84372473 75.34720201 -18 86 C-17.1028125 87.1446875 -17.1028125 87.1446875 -16.1875 88.3125 C-8.63314224 94.14014741 0.89413744 93.68442758 10 93 C17.98954735 91.90408864 23.19020962 87.30972501 28 81 C29.48097098 78.05301735 30.29417588 75.20969653 31 72 C31.52207031 70.22109375 31.52207031 70.22109375 32.0546875 68.40625 C33.33163214 63.30501378 33.25637031 58.29301905 33.1875 53.0625 C33.18685547 52.10537109 33.18621094 51.14824219 33.18554688 50.16210938 C33.56194067 45.74649449 33.56194067 45.74649449 32 42 C31.8453125 40.7934375 31.8453125 40.7934375 31.6875 39.5625 C30.25998277 32.16536529 27.91221107 25.90280918 22 21 C21.2575 20.278125 20.515 19.55625 19.75 18.8125 C7.07351095 10.45754131 -10.50602229 14.51253474 -20.44140625 24.90234375 Z M-19 20 C-20.63676257 21.9600281 -20.63676257 21.9600281 -22 24 C-18.87802522 22.6910428 -18.87802522 22.6910428 -17 20 C-17.66 20 -18.32 20 -19 20 Z M46 37 C47 40 47 40 47 40 Z M48 43 C48 45.31 48 47.62 48 50 C48.33 50 48.66 50 49 50 C49 47.69 49 45.38 49 43 C48.67 43 48.34 43 48 43 Z M48 51 C49 53 49 53 49 53 Z M48 54 C49 57 49 57 49 57 Z M48 59 C48 61.31 48 63.62 48 66 C48.33 66 48.66 66 49 66 C49 63.69 49 61.38 49 59 C48.67 59 48.34 59 48 59 Z M-28 67 C-27 71 -27 71 -27 71 Z M46 67 C47 70 47 70 47 70 Z M32 94 C32.33 94.66 32.66 95.32 33 96 C33.33 95.34 33.66 94.68 34 94 C33.34 94 32.68 94 32 94 Z " fill="#0BD1C8" transform="translate(1151,81)"/>
<path d="M0 0 C14.45682129 0.72284106 22.64591327 4.1489792 32.93359375 14.59765625 C38.20831364 20.72989204 39.30789502 28.03753349 39.22705078 35.95483398 C39.22734283 36.71663467 39.22763489 37.47843536 39.22793579 38.26332092 C39.22655294 40.75769824 39.21104155 43.25176922 39.1953125 45.74609375 C39.19157865 47.48486671 39.18873343 49.22364178 39.18673706 50.9624176 C39.17912992 55.52116791 39.15950672 60.07978917 39.1373291 64.63848877 C39.11680756 69.29738622 39.10772189 73.95630468 39.09765625 78.61523438 C39.07625788 87.74355517 39.04109975 96.87174662 39 106 C33.72 106 28.44 106 23 106 C21.50979614 103.01959229 21.85877459 100.30843564 21.84228516 96.98339844 C21.83720444 96.26122635 21.83212372 95.53905426 21.82688904 94.79499817 C21.81617724 93.22409025 21.80756024 91.653167 21.80076981 90.08223724 C21.78898773 87.59358233 21.76953537 85.1051015 21.74765015 82.61651611 C21.68602073 75.53981343 21.63204105 68.46312703 21.59863281 61.38623047 C21.57765395 57.05900093 21.54232138 52.73208624 21.49787521 48.40503693 C21.48373639 46.75771041 21.47499756 45.11032816 21.47182083 43.46294403 C21.46689635 41.1530225 21.44369885 38.84393161 21.41650391 36.53417969 C21.40841705 35.22116882 21.4003302 33.90815796 21.39199829 32.55535889 C20.69559132 26.23906419 17.87114775 21.98548452 13 18 C4.91079019 14.46097071 -4.78908929 14.9164896 -13 17.8125 C-16.55340859 19.22627994 -19.81923203 20.86838586 -23 23 C-23.87822312 25.08533633 -23.87822312 25.08533633 -24 27 C-24.66 27 -25.32 27 -26 27 C-26.12375 27.70125 -26.2475 28.4025 -26.375 29.125 C-27 32 -27 32 -28.02012634 34.75370789 C-29.08024655 38.26585443 -29.27081276 41.15234467 -29.30297852 44.81567383 C-29.31141785 45.46843292 -29.31985718 46.12119202 -29.32855225 46.79373169 C-29.3541533 48.93150631 -29.36642473 51.06914351 -29.37890625 53.20703125 C-29.39509263 54.69822771 -29.41227382 56.18941368 -29.43040466 57.68058777 C-29.47593856 61.59112715 -29.51083282 65.50168069 -29.54260254 69.41235352 C-29.59463827 75.68920402 -29.65948068 81.96590151 -29.73081779 88.24255943 C-29.75369556 90.43682337 -29.76993095 92.63106749 -29.78553772 94.82539368 C-29.79893668 96.16069769 -29.8125508 97.49599957 -29.82641602 98.83129883 C-29.83592789 100.00122879 -29.84543976 101.17115875 -29.85523987 102.37654114 C-30 105 -30 105 -31 106 C-33.31074168 106.09932392 -35.62462942 106.12969618 -37.9375 106.125 C-39.83822266 106.12886719 -39.83822266 106.12886719 -41.77734375 106.1328125 C-45 106 -45 106 -47 105 C-47.02314185 92.01343507 -47.04092453 79.02687502 -47.05181217 66.04029369 C-47.05703695 60.01049765 -47.06412729 53.98071568 -47.07543945 47.95092773 C-47.08628266 42.13489455 -47.0922799 36.31887493 -47.09487724 30.50283241 C-47.09672889 28.28081359 -47.10034456 26.05879553 -47.10573006 23.83678246 C-47.11295945 20.73125971 -47.11399013 17.62579344 -47.11352539 14.52026367 C-47.11712067 13.59597565 -47.12071594 12.67168762 -47.12442017 11.71939087 C-47.1230455 10.87385147 -47.12167084 10.02831207 -47.12025452 9.15715027 C-47.12117631 8.42248126 -47.1220981 7.68781225 -47.12304783 6.93088055 C-47 5 -47 5 -46 2 C-44.56260487 1.97287934 -43.12506137 1.95354933 -41.6875 1.9375 C-40.48673828 1.92009766 -40.48673828 1.92009766 -39.26171875 1.90234375 C-37 2 -37 2 -34 3 C-33.05078125 4.9609375 -33.05078125 4.9609375 -32.3125 7.375 C-31.93544922 8.56222656 -31.93544922 8.56222656 -31.55078125 9.7734375 C-31 12 -31 12 -31 15 C-30.34 15 -29.68 15 -29 15 C-28.75765625 14.41476563 -28.5153125 13.82953125 -28.265625 13.2265625 C-25.49426395 8.35101991 -20.09714639 5.00298305 -15.125 2.625 C-11.19494951 1.8389899 -7.28971622 1.51038609 -3.29296875 1.24609375 C-1.03742447 1.24662846 -1.03742447 1.24662846 0 0 Z M-30 31 C-30 32.65 -30 34.3 -30 36 C-29.67 36 -29.34 36 -29 36 C-29 34.35 -29 32.7 -29 31 C-29.33 31 -29.66 31 -30 31 Z M-32 37 C-31 40 -31 40 -31 40 Z M-32 46 C-32 65.14 -32 84.28 -32 104 C-31.67 104 -31.34 104 -31 104 C-31 84.86 -31 65.72 -31 46 C-31.33 46 -31.66 46 -32 46 Z " fill="#0BD2C9" transform="translate(978,81)"/>
<path d="M0 0 C0.17835515 4.54805635 -0.00214565 7.8794254 -2 12 C-9.75 12.125 -9.75 12.125 -12 11 C-19.2448355 10.16154147 -19.2448355 10.16154147 -26.0546875 12.1171875 C-27.81612962 13.62698761 -27.81612962 13.62698761 -30 16 C-30.66 16 -31.32 16 -32 16 C-32 17.32 -32 18.64 -32 20 C-32.66 20 -33.32 20 -34 20 C-33.979375 21.299375 -33.95875 22.59875 -33.9375 23.9375 C-33.91600546 25.29165633 -33.92851801 26.64756083 -34 28 C-34.33 28.33 -34.66 28.66 -35 29 C-35.23192865 30.51469448 -35.41215238 32.03754562 -35.5625 33.5625 C-35.64628906 34.38878906 -35.73007813 35.21507812 -35.81640625 36.06640625 C-35.90728516 37.02353516 -35.90728516 37.02353516 -36 38 C-35.25314941 38.01981934 -34.50629883 38.03963867 -33.73681641 38.06005859 C-30.36584395 38.15508211 -26.99551071 38.26485259 -23.625 38.375 C-22.449375 38.4059375 -21.27375 38.436875 -20.0625 38.46875 C-18.94101563 38.50742188 -17.81953125 38.54609375 -16.6640625 38.5859375 C-15.62717285 38.6173584 -14.5902832 38.6487793 -13.52197266 38.68115234 C-11 39 -11 39 -9 41 C-8.734375 43.53125 -8.734375 43.53125 -8.75 46.5 C-8.74226563 47.96953125 -8.74226563 47.96953125 -8.734375 49.46875 C-9 52 -9 52 -11 54 C-18.92 54 -26.84 54 -35 54 C-35.33 83.37 -35.66 112.74 -36 143 C-40.95 143 -45.9 143 -51 143 C-53.18743358 138.62513284 -53.27069932 135.4805892 -53.22705078 130.74316406 C-53.22734283 129.91352646 -53.22763489 129.08388885 -53.22793579 128.22911072 C-53.2265442 125.49117518 -53.21099104 122.75351291 -53.1953125 120.015625 C-53.19158176 118.11562244 -53.18873508 116.21561796 -53.18673706 114.31561279 C-53.17910539 109.31787798 -53.15946085 104.32025964 -53.1373291 99.3225708 C-53.11686067 94.22157364 -53.10773321 89.12055765 -53.09765625 84.01953125 C-53.07621457 74.01296969 -53.04208419 64.00649454 -53 54 C-54.05960938 54.03480469 -55.11921875 54.06960937 -56.2109375 54.10546875 C-57.59894252 54.13360399 -58.98696463 54.16090443 -60.375 54.1875 C-61.07367187 54.21263672 -61.77234375 54.23777344 -62.4921875 54.26367188 C-64.5234375 54.29296875 -64.5234375 54.29296875 -68 54 C-70.14762184 50.77856724 -70.561068 49.7404533 -70 46 C-67.00809372 43.16849895 -64.42863207 42.55919407 -60.4375 41.875 C-56.47224741 40.92008902 -56.47224741 40.92008902 -53.65234375 38.1953125 C-52.1937152 34.07596956 -51.87917379 29.95908443 -51.5625 25.625 C-50.85445432 16.24995072 -48.12634228 8.95678217 -41.06640625 2.5859375 C-29.33228081 -6.41983741 -13.0297324 -5.07938721 0 0 Z M-52 33 C-52 34.98 -52 36.96 -52 39 C-51.67 39 -51.34 39 -51 39 C-51 37.02 -51 35.04 -51 33 C-51.33 33 -51.66 33 -52 33 Z " fill="#0BD2C8" transform="translate(1104,44)"/>
<path d="M0 0 C2.1875 1.953125 2.1875 1.953125 2.7109375 5.4921875 C2.68707754 6.85485626 2.63668207 8.21726775 2.5625 9.578125 C2.54832031 10.27164063 2.53414062 10.96515625 2.51953125 11.6796875 C2.37039424 16.77023076 2.37039424 16.77023076 1.1875 17.953125 C-2.27675832 18.15779672 -5.73407659 18.29907685 -9.203125 18.3828125 C-15.39198684 18.64158024 -20.25192439 19.80777787 -25.125 23.890625 C-28.69034819 28.24827279 -29.07303074 31.47109612 -29.13134766 37.10839844 C-29.14139328 37.82099319 -29.1514389 38.53358795 -29.16178894 39.26777649 C-29.19260465 41.61600969 -29.20965135 43.96412895 -29.2265625 46.3125 C-29.24527547 47.94347106 -29.26484898 49.57443245 -29.2852478 51.2053833 C-29.33656147 55.49280089 -29.37619124 59.78024987 -29.41339111 64.06781006 C-29.45343558 68.44502522 -29.5045259 72.82210991 -29.5546875 77.19921875 C-29.6514378 85.7837716 -29.73482427 94.36837834 -29.8125 102.953125 C-35.7525 102.953125 -41.6925 102.953125 -47.8125 102.953125 C-48.95038734 100.67735032 -48.93592063 99.44279076 -48.93275452 96.91622925 C-48.93412918 96.07206451 -48.93550385 95.22789978 -48.93692017 94.3581543 C-48.93332489 93.430271 -48.92972961 92.5023877 -48.92602539 91.54638672 C-48.92617142 90.57073761 -48.92631744 89.5950885 -48.9264679 88.58987427 C-48.92576935 85.35416466 -48.91797966 82.1185121 -48.91015625 78.8828125 C-48.90829186 76.64364656 -48.90686806 74.40448021 -48.90586853 72.16531372 C-48.90204498 66.26339599 -48.89221607 60.36150276 -48.88116455 54.45959473 C-48.87094694 48.44051444 -48.86637016 42.4214302 -48.86132812 36.40234375 C-48.85059367 24.58592672 -48.83351918 12.76952789 -48.8125 0.953125 C-46.02057795 0.89931922 -43.2296859 0.85954831 -40.4375 0.828125 C-39.6434375 0.81136719 -38.849375 0.79460937 -38.03125 0.77734375 C-35.95757985 0.75977027 -33.88366759 0.84977332 -31.8125 0.953125 C-29.45296906 3.31265594 -29.32108587 4.73208117 -28.8125 7.953125 C-28.420625 7.52 -28.02875 7.086875 -27.625 6.640625 C-20.1793754 -0.29150825 -9.7574168 -3.63192736 0 0 Z " fill="#F9FBFB" transform="translate(660.8125,84.046875)"/>
<path d="M0 0 C0.96292969 -0.01224609 1.92585937 -0.02449219 2.91796875 -0.03710938 C3.84222656 -0.03904297 4.76648438 -0.04097656 5.71875 -0.04296875 C6.9862207 -0.04913208 6.9862207 -0.04913208 8.27929688 -0.05541992 C10.5 0.1875 10.5 0.1875 13.5 2.1875 C13.75622789 5.15078067 13.81867159 7.89890498 13.7487793 10.85986328 C13.73946381 11.75748383 13.73014832 12.65510437 13.72055054 13.57992554 C13.68608849 16.55626547 13.63021026 19.53180602 13.57421875 22.5078125 C13.54619593 24.56759931 13.51950444 26.62740464 13.49409485 28.68722534 C13.42353451 34.11591964 13.33483266 39.54417355 13.24243164 44.97253418 C13.15137663 50.5088813 13.07736856 56.04545291 13.00195312 61.58203125 C12.85137932 72.45080984 12.68165154 83.31919953 12.5 94.1875 C8.70913543 94.41269106 4.91738942 94.61479249 1.125 94.8125 C0.04476562 94.87695312 -1.03546875 94.94140625 -2.1484375 95.0078125 C-3.1796875 95.059375 -4.2109375 95.1109375 -5.2734375 95.1640625 C-6.22653809 95.21643066 -7.17963867 95.26879883 -8.16162109 95.32275391 C-10.5 95.1875 -10.5 95.1875 -12.5 93.1875 C-12.71785903 90.2668997 -12.81144537 87.43836809 -12.81884766 84.51513672 C-12.82889328 83.61751617 -12.8389389 82.71989563 -12.84928894 81.79507446 C-12.88025475 78.81911884 -12.89719317 75.84325371 -12.9140625 72.8671875 C-12.93276338 70.80737522 -12.95233597 68.74757069 -12.9727478 66.68777466 C-13.02418913 61.25938473 -13.0637505 55.83096992 -13.10089111 50.40246582 C-13.1408557 44.8659036 -13.19198236 39.3294459 -13.2421875 33.79296875 C-13.33908881 22.92455246 -13.42344797 12.05607732 -13.5 1.1875 C-9.04253884 -0.29832039 -4.66868558 0.00312496 0 0 Z " fill="#FAFCFC" transform="translate(156.5,30.8125)"/>
<path d="M0 0 C2.45840605 -0.02691685 4.91651882 -0.04679802 7.375 -0.0625 C8.07367187 -0.07087891 8.77234375 -0.07925781 9.4921875 -0.08789062 C14.7734375 -0.11328125 14.7734375 -0.11328125 17 1 C17 46.21 17 91.42 17 138 C11.72 138 6.44 138 1 138 C-0.3012763 135.39744739 -0.12293904 133.51180181 -0.12025452 130.59640503 C-0.12162918 129.44933075 -0.12300385 128.30225647 -0.12442017 127.12042236 C-0.12082489 125.85591248 -0.11722961 124.59140259 -0.11352539 123.28857422 C-0.11324343 121.9483948 -0.11340143 120.60821522 -0.1139679 119.26803589 C-0.11425551 115.62362899 -0.10836451 111.97925483 -0.10139394 108.33485556 C-0.09515451 104.52850605 -0.09455613 100.72215584 -0.09336853 96.915802 C-0.09025696 89.70517041 -0.0820459 82.49455392 -0.07201904 75.28392899 C-0.06085251 67.07606021 -0.05534609 58.86819071 -0.05032361 50.66031623 C-0.03986316 33.7735354 -0.02226707 16.8867693 0 0 Z " fill="#0BD4CB" transform="translate(880,49)"/>
<path d="M0 0 C24.09 0 48.18 0 73 0 C73.495 0.99 73.495 0.99 74 2 C50.24 2 26.48 2 2 2 C2 47.21 2 92.42 2 139 C10.25 139 18.5 139 27 139 C27 139.33 27 139.66 27 140 C18.42 140 9.84 140 1 140 C-0.31035128 137.37929744 -0.12291863 135.45632569 -0.12025452 132.52047729 C-0.12162918 131.35657471 -0.12300385 130.19267212 -0.12442017 128.99349976 C-0.12082489 127.71028839 -0.11722961 126.42707703 -0.11352539 125.10498047 C-0.11324343 123.74509686 -0.11340143 122.38521311 -0.1139679 121.02532959 C-0.11425552 117.3272056 -0.10836435 113.62911385 -0.10139394 109.93099737 C-0.09515468 106.0685934 -0.09455615 102.20618875 -0.09336853 98.34378052 C-0.09025691 91.02690113 -0.08204579 83.71003663 -0.07201904 76.3931638 C-0.05876589 66.5078918 -0.05335663 56.62261575 -0.04751682 46.73733711 C-0.03810579 31.15821358 -0.01818574 15.57912148 0 0 Z " fill="#0EE4DC" transform="translate(70,32)"/>
<path d="M0 0 C0.33 0 0.66 0 1 0 C1 44.55 1 89.1 1 135 C0.67 135 0.34 135 0 135 C0 90.45 0 45.9 0 0 Z " fill="#FAFCFC" transform="translate(781,47)"/>
<path d="M0 0 C0.33 0 0.66 0 1 0 C1 16.83 1 33.66 1 51 C0.67 51 0.34 51 0 51 C0 34.17 0 17.34 0 0 Z " fill="#000100" transform="translate(245,67)"/>
<path d="M0 0 C5.73842251 -0.20413361 10.60539047 -0.27141454 16 2 C16 4.31 16 6.62 16 9 C15.67 9 15.34 9 15 9 C15 7.02 15 5.04 15 3 C13.68 3.33 12.36 3.66 11 4 C11 3.34 11 2.68 11 2 C7.37 2 3.74 2 0 2 C0 1.34 0 0.68 0 0 Z " fill="#11EDE8" transform="translate(1088,42)"/>
<path d="M0 0 C0.66 0.66 1.32 1.32 2 2 C1.27554688 2.03738281 0.55109375 2.07476562 -0.1953125 2.11328125 C-5.88363826 2.5000874 -9.95624042 3.15480229 -15 6 C-15.66 5.67 -16.32 5.34 -17 5 C-11.54600519 0.25739581 -7.26000082 -1.26087766 0 0 Z " fill="#0EE6DF" transform="translate(976,83)"/>
<path d="M0 0 C0.99 0.33 1.98 0.66 3 1 C2.2575 1.721875 1.515 2.44375 0.75 3.1875 C-2.01267269 5.90711047 -2.01267269 5.90711047 -4.1875 8.8125 C-4.785625 9.534375 -5.38375 10.25625 -6 11 C-6.66 11 -7.32 11 -8 11 C-7.43040847 7.37386801 -6.07625466 5.74482259 -3.4375 3.25 C-2.79683594 2.63640625 -2.15617187 2.0228125 -1.49609375 1.390625 C-1.00238281 0.93171875 -0.50867187 0.4728125 0 0 Z M-9 11 C-8.34 11.66 -7.68 12.32 -7 13 C-7.99 13 -8.98 13 -10 13 C-9.67 12.34 -9.34 11.68 -9 11 Z " fill="#0CDDD5" transform="translate(1065,45)"/>
<path d="M0 0 C0.99 0.66 1.98 1.32 3 2 C2.46890625 2.45890625 1.9378125 2.9178125 1.390625 3.390625 C-2.18324699 6.49493717 -5.71854059 9.58181312 -9 13 C-9.33 12.01 -9.66 11.02 -10 10 C-6.7 6.7 -3.4 3.4 0 0 Z " fill="#0DDED6" transform="translate(1126,89)"/>
<path d="M0 0 C0.66 0.66 1.32 1.32 2 2 C-0.31 4.31 -2.62 6.62 -5 9 C-5.66 8.34 -6.32 7.68 -7 7 C-4.69 4.69 -2.38 2.38 0 0 Z M-10 9 C-9.34 9 -8.68 9 -8 9 C-8 9.66 -8 10.32 -8 11 C-8.66 11 -9.32 11 -10 11 C-10 10.34 -10 9.68 -10 9 Z " fill="#0CDDD5" transform="translate(1178,162)"/>
<path d="M0 0 C2.02408755 0.09002398 4.04544287 0.24641038 6.0625 0.4375 C7.71958984 0.59025391 7.71958984 0.59025391 9.41015625 0.74609375 C10.26480469 0.82988281 11.11945313 0.91367188 12 1 C12 1.99 12 2.98 12 4 C10.20759337 3.88610125 8.41605165 3.75852313 6.625 3.625 C5.12839844 3.52058594 5.12839844 3.52058594 3.6015625 3.4140625 C1 3 1 3 -1 1 C-0.67 0.67 -0.34 0.34 0 0 Z " fill="#0EE4DD" transform="translate(1155,82)"/>
<path d="M0 0 C0.66 0 1.32 0 2 0 C2.05389087 1.95803507 2.09274217 3.91648909 2.125 5.875 C2.14820313 6.96554688 2.17140625 8.05609375 2.1953125 9.1796875 C2 12 2 12 0 14 C-1.10370043 10.6888987 -0.92673641 8.75251051 -0.5625 5.3125 C-0.46066406 4.31863281 -0.35882812 3.32476562 -0.25390625 2.30078125 C-0.17011719 1.54152344 -0.08632812 0.78226562 0 0 Z " fill="#0EE3DB" transform="translate(1053,64)"/>
<path d="M0 0 C2.02408755 0.09002398 4.04544287 0.24641038 6.0625 0.4375 C7.71958984 0.59025391 7.71958984 0.59025391 9.41015625 0.74609375 C10.26480469 0.82988281 11.11945312 0.91367188 12 1 C11.67 1.99 11.34 2.98 11 4 C9.37419034 3.88601335 7.74932843 3.75844341 6.125 3.625 C5.22007812 3.55539063 4.31515625 3.48578125 3.3828125 3.4140625 C1 3 1 3 -1 1 C-0.67 0.67 -0.34 0.34 0 0 Z " fill="#0EE3DC" transform="translate(982,82)"/>
<path d="M0 0 C4.62 0 9.24 0 14 0 C14 0.33 14 0.66 14 1 C9.38 1 4.76 1 0 1 C0 0.67 0 0.34 0 0 Z " fill="#000100" transform="translate(368,91)"/>
<path d="M0 0 C0.33 0 0.66 0 1 0 C1 2.64 1 5.28 1 8 C0.67 8 0.34 8 0 8 C0 5.36 0 2.72 0 0 Z " fill="#000100" transform="translate(1124,126)"/>
<path d="M0 0 C0.33 0 0.66 0 1 0 C1 2.31 1 4.62 1 7 C0.67 7 0.34 7 0 7 C0 4.69 0 2.38 0 0 Z " fill="#000100" transform="translate(1124,138)"/>
<path d="M0 0 C0 3 0 3 0 3 Z " fill="#0EE3DB" transform="translate(1125,117)"/>
<path d="M0 0 C4 1 4 1 4 1 Z " fill="#000100" transform="translate(1080,55)"/>
<path d="" fill="#000100" transform="translate(0,0)"/>
<path d="" fill="#000100" transform="translate(0,0)"/>
<path d="" fill="#000100" transform="translate(0,0)"/>
<path d="" fill="#000100" transform="translate(0,0)"/>
<path d="" fill="#0AD0C6" transform="translate(0,0)"/>
<path d="" fill="#0AD0C6" transform="translate(0,0)"/>
<path d="" fill="#000100" transform="translate(0,0)"/>
<path d="" fill="#000100" transform="translate(0,0)"/>
<path d="" fill="#000100" transform="translate(0,0)"/>
<path d="" fill="#FAFCFC" transform="translate(0,0)"/>
<path d="" fill="#33605B" transform="translate(0,0)"/>
<path d="" fill="#FAFCFC" transform="translate(0,0)"/>
<path d="" fill="#000100" transform="translate(0,0)"/>
<path d="" fill="#000100" transform="translate(0,0)"/>
<path d="" fill="#000100" transform="translate(0,0)"/>
<path d="" fill="#000100" transform="translate(0,0)"/>
<path d="" fill="#FAFCFC" transform="translate(0,0)"/>
<path d="" fill="#0AD0C6" transform="translate(0,0)"/>
<path d="" fill="#000100" transform="translate(0,0)"/>
<path d="" fill="#6D938E" transform="translate(0,0)"/>
<path d="" fill="#000100" transform="translate(0,0)"/>
<path d="" fill="#000100" transform="translate(0,0)"/>
<path d="" fill="#000100" transform="translate(0,0)"/>
<path d="" fill="#0AD0C6" transform="translate(0,0)"/>
<path d="" fill="#000100" transform="translate(0,0)"/>
<path d="" fill="#24312E" transform="translate(0,0)"/>
<path d="" fill="#000100" transform="translate(0,0)"/>
<path d="" fill="#000100" transform="translate(0,0)"/>
<path d="" fill="#000100" transform="translate(0,0)"/>
</svg>
